# xmcd
#
# Track frame offsets:
#	150
#	17000
#	35450
#	57495
#	74880
#	93985
#	109150
#	124897
#	139320
#	156595
#	170427
#
# Disc length: 2528 seconds
#
# Revision: 4
# Processed by: cddbd v1.5.2PL0 Copyright (c) Steve Scherf et al.
# Submitted via: audiograbber 1.83.01
#
DISCID=a509de0b
DTITLE=Graeme Connors - North
DYEAR=1988
DGENRE=Country
TTITLE0=A Little Further North
TTITLE1=Mango Shade
TTITLE2=Let The Canefields Burn
TTITLE3=So Father Uluru Says
TTITLE4=Sicilian Born
TTITLE5=Cyclone Season
TTITLE6=The Metho Man
TTITLE7=A Blessing In Disguise
TTITLE8=A Heartache (Or Two)
TTITLE9=The More I See Of You
TTITLE10=On The Edge Of Paradise
EXTD=
EXTT0=
EXTT1=
EXTT2=
EXTT3=
EXTT4=
EXTT5=
EXTT6=
EXTT7=
EXTT8=
EXTT9=
EXTT10=
PLAYORDER=
